<svg width="49" height="48" viewBox="0 0 49 48" fill="none" xmlns="http://www.w3.org/2000/svg">
<path d="M10.7941 10.5958C11.1692 10.2209 11.6778 10.0102 12.2081 10.0102C12.7385 10.0102 13.2471 10.2209 13.6221 10.5958L24.2081 21.1818L34.7941 10.5958C34.9786 10.4048 35.1993 10.2524 35.4433 10.1476C35.6873 10.0428 35.9498 9.98761 36.2153 9.98531C36.4809 9.983 36.7442 10.0336 36.99 10.1342C37.2358 10.2347 37.4591 10.3832 37.6469 10.571C37.8347 10.7588 37.9832 10.9821 38.0838 11.2279C38.1843 11.4737 38.2349 11.737 38.2326 12.0026C38.2303 12.2682 38.1751 12.5306 38.0703 12.7746C37.9655 13.0186 37.8132 13.2393 37.6221 13.4238L27.0361 24.0098L37.6221 34.5958C37.9864 34.973 38.188 35.4782 38.1835 36.0026C38.1789 36.527 37.9686 37.0286 37.5978 37.3994C37.227 37.7703 36.7253 37.9806 36.2009 37.9852C35.6765 37.9897 35.1713 37.7881 34.7941 37.4238L24.2081 26.8378L13.6221 37.4238C13.2449 37.7881 12.7397 37.9897 12.2153 37.9852C11.6909 37.9806 11.1893 37.7703 10.8185 37.3994C10.4477 37.0286 10.2373 36.527 10.2328 36.0026C10.2282 35.4782 10.4298 34.973 10.7941 34.5958L21.3801 24.0098L10.7941 13.4238C10.4192 13.0488 10.2086 12.5401 10.2086 12.0098C10.2086 11.4795 10.4192 10.9709 10.7941 10.5958Z" fill="#0D0D0D"/>
</svg>
