<svg width="33" height="33" viewBox="0 0 33 33" fill="none" xmlns="http://www.w3.org/2000/svg">
<path d="M22.4029 3.15287C22.6607 2.8951 23.0104 2.75029 23.375 2.75029C23.7396 2.75029 24.0893 2.8951 24.3471 3.15287L29.8471 8.65287C30.1049 8.91072 30.2497 9.2604 30.2497 9.625C30.2497 9.9896 30.1049 10.3393 29.8471 10.5971L11.9721 28.4721C11.7143 28.73 11.3646 28.8749 11 28.875H5.5C5.13533 28.875 4.78559 28.7301 4.52773 28.4723C4.26987 28.2144 4.125 27.8647 4.125 27.5V22C4.12508 21.6354 4.26999 21.2857 4.52787 21.0279L18.2779 7.27787L22.4029 3.15287ZM19.25 10.1942L6.875 22.5692V26.125H10.4307L22.8057 13.75L19.25 10.1942ZM24.75 11.8057L26.9307 9.625L23.375 6.06925L21.1943 8.25L24.75 11.8057Z" fill="#4A5568"/>
</svg>
