<svg width="36" height="36" viewBox="0 0 36 36" fill="none" xmlns="http://www.w3.org/2000/svg">
<path d="M18 31.5L15.825 29.55C13.3 27.275 11.2125 25.3125 9.5625 23.6625C7.9125 22.0125 6.6 20.5375 5.625 19.2375C4.65 17.9125 3.9625 16.7 3.5625 15.6C3.1875 14.5 3 13.375 3 12.225C3 9.87499 3.7875 7.91249 5.3625 6.33749C6.9375 4.76249 8.9 3.97499 11.25 3.97499C12.55 3.97499 13.7875 4.24999 14.9625 4.79999C16.1375 5.34999 17.15 6.12499 18 7.12499C18.85 6.12499 19.8625 5.34999 21.0375 4.79999C22.2125 4.24999 23.45 3.97499 24.75 3.97499C27.1 3.97499 29.0625 4.76249 30.6375 6.33749C32.2125 7.91249 33 9.87499 33 12.225C33 13.375 32.8 14.5 32.4 15.6C32.025 16.7 31.35 17.9125 30.375 19.2375C29.4 20.5375 28.0875 22.0125 26.4375 23.6625C24.7875 25.3125 22.7 27.275 20.175 29.55L18 31.5ZM18 27.45C20.4 25.3 22.375 23.4625 23.925 21.9375C25.475 20.3875 26.7 19.05 27.6 17.925C28.5 16.775 29.125 15.7625 29.475 14.8875C29.825 13.9875 30 13.1 30 12.225C30 10.725 29.5 9.47499 28.5 8.47499C27.5 7.47499 26.25 6.97499 24.75 6.97499C23.575 6.97499 22.4875 7.31249 21.4875 7.98749C20.4875 8.63749 19.8 9.47499 19.425 10.5H16.575C16.2 9.47499 15.5125 8.63749 14.5125 7.98749C13.5125 7.31249 12.425 6.97499 11.25 6.97499C9.75 6.97499 8.5 7.47499 7.5 8.47499C6.5 9.47499 6 10.725 6 12.225C6 13.1 6.175 13.9875 6.525 14.8875C6.875 15.7625 7.5 16.775 8.4 17.925C9.3 19.05 10.525 20.3875 12.075 21.9375C13.625 23.4625 15.6 25.3 18 27.45Z" fill="#545454"/>
</svg>
