<svg width="25" height="25" viewBox="0 0 25 25" fill="none" xmlns="http://www.w3.org/2000/svg">
<path d="M1.625 12.5L4.04167 10.0833M4.04167 10.0833L12.5 1.625L20.9583 10.0833M4.04167 10.0833V22.1667C4.04167 22.834 4.58266 23.375 5.25 23.375H8.875M20.9583 10.0833L23.375 12.5M20.9583 10.0833V22.1667C20.9583 22.834 20.4174 23.375 19.75 23.375H16.125M8.875 23.375C9.54234 23.375 10.0833 22.834 10.0833 22.1667V17.3333C10.0833 16.666 10.6243 16.125 11.2917 16.125H13.7083C14.3757 16.125 14.9167 16.666 14.9167 17.3333V22.1667C14.9167 22.834 15.4576 23.375 16.125 23.375M8.875 23.375H16.125" stroke="#4A5568" stroke-width="2" stroke-linecap="round" stroke-linejoin="round"/>
</svg>
