<svg width="34" height="34" viewBox="0 0 34 34" fill="none" xmlns="http://www.w3.org/2000/svg">
<path fill-rule="evenodd" clip-rule="evenodd" d="M22.6667 12.75C22.6667 15.8795 20.1296 18.4166 17 18.4166C13.8704 18.4166 11.3333 15.8795 11.3333 12.75C11.3333 9.62036 13.8704 7.08331 17 7.08331C20.1296 7.08331 22.6667 9.62036 22.6667 12.75ZM19.8333 12.75C19.8333 14.3148 18.5648 15.5833 17 15.5833C15.4351 15.5833 14.1667 14.3148 14.1667 12.75C14.1667 11.1852 15.4351 9.91665 17 9.91665C18.5648 9.91665 19.8333 11.1852 19.8333 12.75Z" fill="#4A5568"/>
<path fill-rule="evenodd" clip-rule="evenodd" d="M17 1.41669C8.39357 1.41669 1.41667 8.39359 1.41667 17C1.41667 25.6064 8.39357 32.5834 17 32.5834C25.6064 32.5834 32.5833 25.6064 32.5833 17C32.5833 8.39359 25.6064 1.41669 17 1.41669ZM4.25001 17C4.25001 19.9611 5.25945 22.6865 6.95298 24.8508C9.28264 21.801 12.9572 19.8334 17.0914 19.8334C21.1718 19.8334 24.8047 21.7502 27.1384 24.7326C28.7768 22.5878 29.75 19.9076 29.75 17C29.75 9.95839 24.0417 4.25002 17 4.25002C9.95838 4.25002 4.25001 9.95839 4.25001 17ZM17 29.75C13.9538 29.75 11.1572 28.6817 8.9642 26.8994C10.7575 24.3401 13.729 22.6667 17.0914 22.6667C20.4119 22.6667 23.3513 24.2988 25.1512 26.8046C22.9414 28.6437 20.0998 29.75 17 29.75Z" fill="#4A5568"/>
</svg>
